# vtk DataFile Version 3.0
fem heat conduction result
ASCII

DATASET UNSTRUCTURED_GRID
POINTS 121 float
0.000000000000000000e+00 0.000000000000000000e+00 0.000000000000000000e+00
1.000000000000000000e+00 0.000000000000000000e+00 0.000000000000000000e+00
2.000000000000000000e+00 0.000000000000000000e+00 0.000000000000000000e+00
3.000000000000000000e+00 0.000000000000000000e+00 0.000000000000000000e+00
4.000000000000000000e+00 0.000000000000000000e+00 0.000000000000000000e+00
5.000000000000000000e+00 0.000000000000000000e+00 0.000000000000000000e+00
6.000000000000000000e+00 0.000000000000000000e+00 0.000000000000000000e+00
7.000000000000000000e+00 0.000000000000000000e+00 0.000000000000000000e+00
8.000000000000000000e+00 0.000000000000000000e+00 0.000000000000000000e+00
9.000000000000000000e+00 0.000000000000000000e+00 0.000000000000000000e+00
1.000000000000000000e+01 0.000000000000000000e+00 0.000000000000000000e+00
0.000000000000000000e+00 1.000000000000000000e+00 0.000000000000000000e+00
1.000000000000000000e+00 1.000000000000000000e+00 0.000000000000000000e+00
2.000000000000000000e+00 1.000000000000000000e+00 0.000000000000000000e+00
3.000000000000000000e+00 1.000000000000000000e+00 0.000000000000000000e+00
4.000000000000000000e+00 1.000000000000000000e+00 0.000000000000000000e+00
5.000000000000000000e+00 1.000000000000000000e+00 0.000000000000000000e+00
6.000000000000000000e+00 1.000000000000000000e+00 0.000000000000000000e+00
7.000000000000000000e+00 1.000000000000000000e+00 0.000000000000000000e+00
8.000000000000000000e+00 1.000000000000000000e+00 0.000000000000000000e+00
9.000000000000000000e+00 1.000000000000000000e+00 0.000000000000000000e+00
1.000000000000000000e+01 1.000000000000000000e+00 0.000000000000000000e+00
0.000000000000000000e+00 2.000000000000000000e+00 0.000000000000000000e+00
1.000000000000000000e+00 2.000000000000000000e+00 0.000000000000000000e+00
2.000000000000000000e+00 2.000000000000000000e+00 0.000000000000000000e+00
3.000000000000000000e+00 2.000000000000000000e+00 0.000000000000000000e+00
4.000000000000000000e+00 2.000000000000000000e+00 0.000000000000000000e+00
5.000000000000000000e+00 2.000000000000000000e+00 0.000000000000000000e+00
6.000000000000000000e+00 2.000000000000000000e+00 0.000000000000000000e+00
7.000000000000000000e+00 2.000000000000000000e+00 0.000000000000000000e+00
8.000000000000000000e+00 2.000000000000000000e+00 0.000000000000000000e+00
9.000000000000000000e+00 2.000000000000000000e+00 0.000000000000000000e+00
1.000000000000000000e+01 2.000000000000000000e+00 0.000000000000000000e+00
0.000000000000000000e+00 3.000000000000000000e+00 0.000000000000000000e+00
1.000000000000000000e+00 3.000000000000000000e+00 0.000000000000000000e+00
2.000000000000000000e+00 3.000000000000000000e+00 0.000000000000000000e+00
3.000000000000000000e+00 3.000000000000000000e+00 0.000000000000000000e+00
4.000000000000000000e+00 3.000000000000000000e+00 0.000000000000000000e+00
5.000000000000000000e+00 3.000000000000000000e+00 0.000000000000000000e+00
6.000000000000000000e+00 3.000000000000000000e+00 0.000000000000000000e+00
7.000000000000000000e+00 3.000000000000000000e+00 0.000000000000000000e+00
8.000000000000000000e+00 3.000000000000000000e+00 0.000000000000000000e+00
9.000000000000000000e+00 3.000000000000000000e+00 0.000000000000000000e+00
1.000000000000000000e+01 3.000000000000000000e+00 0.000000000000000000e+00
0.000000000000000000e+00 4.000000000000000000e+00 0.000000000000000000e+00
1.000000000000000000e+00 4.000000000000000000e+00 0.000000000000000000e+00
2.000000000000000000e+00 4.000000000000000000e+00 0.000000000000000000e+00
3.000000000000000000e+00 4.000000000000000000e+00 0.000000000000000000e+00
4.000000000000000000e+00 4.000000000000000000e+00 0.000000000000000000e+00
5.000000000000000000e+00 4.000000000000000000e+00 0.000000000000000000e+00
6.000000000000000000e+00 4.000000000000000000e+00 0.000000000000000000e+00
7.000000000000000000e+00 4.000000000000000000e+00 0.000000000000000000e+00
8.000000000000000000e+00 4.000000000000000000e+00 0.000000000000000000e+00
9.000000000000000000e+00 4.000000000000000000e+00 0.000000000000000000e+00
1.000000000000000000e+01 4.000000000000000000e+00 0.000000000000000000e+00
0.000000000000000000e+00 5.000000000000000000e+00 0.000000000000000000e+00
1.000000000000000000e+00 5.000000000000000000e+00 0.000000000000000000e+00
2.000000000000000000e+00 5.000000000000000000e+00 0.000000000000000000e+00
3.000000000000000000e+00 5.000000000000000000e+00 0.000000000000000000e+00
4.000000000000000000e+00 5.000000000000000000e+00 0.000000000000000000e+00
5.000000000000000000e+00 5.000000000000000000e+00 0.000000000000000000e+00
6.000000000000000000e+00 5.000000000000000000e+00 0.000000000000000000e+00
7.000000000000000000e+00 5.000000000000000000e+00 0.000000000000000000e+00
8.000000000000000000e+00 5.000000000000000000e+00 0.000000000000000000e+00
9.000000000000000000e+00 5.000000000000000000e+00 0.000000000000000000e+00
1.000000000000000000e+01 5.000000000000000000e+00 0.000000000000000000e+00
0.000000000000000000e+00 6.000000000000000000e+00 0.000000000000000000e+00
1.000000000000000000e+00 6.000000000000000000e+00 0.000000000000000000e+00
2.000000000000000000e+00 6.000000000000000000e+00 0.000000000000000000e+00
3.000000000000000000e+00 6.000000000000000000e+00 0.000000000000000000e+00
4.000000000000000000e+00 6.000000000000000000e+00 0.000000000000000000e+00
5.000000000000000000e+00 6.000000000000000000e+00 0.000000000000000000e+00
6.000000000000000000e+00 6.000000000000000000e+00 0.000000000000000000e+00
7.000000000000000000e+00 6.000000000000000000e+00 0.000000000000000000e+00
8.000000000000000000e+00 6.000000000000000000e+00 0.000000000000000000e+00
9.000000000000000000e+00 6.000000000000000000e+00 0.000000000000000000e+00
1.000000000000000000e+01 6.000000000000000000e+00 0.000000000000000000e+00
0.000000000000000000e+00 7.000000000000000000e+00 0.000000000000000000e+00
1.000000000000000000e+00 7.000000000000000000e+00 0.000000000000000000e+00
2.000000000000000000e+00 7.000000000000000000e+00 0.000000000000000000e+00
3.000000000000000000e+00 7.000000000000000000e+00 0.000000000000000000e+00
4.000000000000000000e+00 7.000000000000000000e+00 0.000000000000000000e+00
5.000000000000000000e+00 7.000000000000000000e+00 0.000000000000000000e+00
6.000000000000000000e+00 7.000000000000000000e+00 0.000000000000000000e+00
7.000000000000000000e+00 7.000000000000000000e+00 0.000000000000000000e+00
8.000000000000000000e+00 7.000000000000000000e+00 0.000000000000000000e+00
9.000000000000000000e+00 7.000000000000000000e+00 0.000000000000000000e+00
1.000000000000000000e+01 7.000000000000000000e+00 0.000000000000000000e+00
0.000000000000000000e+00 8.000000000000000000e+00 0.000000000000000000e+00
1.000000000000000000e+00 8.000000000000000000e+00 0.000000000000000000e+00
2.000000000000000000e+00 8.000000000000000000e+00 0.000000000000000000e+00
3.000000000000000000e+00 8.000000000000000000e+00 0.000000000000000000e+00
4.000000000000000000e+00 8.000000000000000000e+00 0.000000000000000000e+00
5.000000000000000000e+00 8.000000000000000000e+00 0.000000000000000000e+00
6.000000000000000000e+00 8.000000000000000000e+00 0.000000000000000000e+00
7.000000000000000000e+00 8.000000000000000000e+00 0.000000000000000000e+00
8.000000000000000000e+00 8.000000000000000000e+00 0.000000000000000000e+00
9.000000000000000000e+00 8.000000000000000000e+00 0.000000000000000000e+00
1.000000000000000000e+01 8.000000000000000000e+00 0.000000000000000000e+00
0.000000000000000000e+00 9.000000000000000000e+00 0.000000000000000000e+00
1.000000000000000000e+00 9.000000000000000000e+00 0.000000000000000000e+00
2.000000000000000000e+00 9.000000000000000000e+00 0.000000000000000000e+00
3.000000000000000000e+00 9.000000000000000000e+00 0.000000000000000000e+00
4.000000000000000000e+00 9.000000000000000000e+00 0.000000000000000000e+00
5.000000000000000000e+00 9.000000000000000000e+00 0.000000000000000000e+00
6.000000000000000000e+00 9.000000000000000000e+00 0.000000000000000000e+00
7.000000000000000000e+00 9.000000000000000000e+00 0.000000000000000000e+00
8.000000000000000000e+00 9.000000000000000000e+00 0.000000000000000000e+00
9.000000000000000000e+00 9.000000000000000000e+00 0.000000000000000000e+00
1.000000000000000000e+01 9.000000000000000000e+00 0.000000000000000000e+00
0.000000000000000000e+00 1.000000000000000000e+01 0.000000000000000000e+00
1.000000000000000000e+00 1.000000000000000000e+01 0.000000000000000000e+00
2.000000000000000000e+00 1.000000000000000000e+01 0.000000000000000000e+00
3.000000000000000000e+00 1.000000000000000000e+01 0.000000000000000000e+00
4.000000000000000000e+00 1.000000000000000000e+01 0.000000000000000000e+00
5.000000000000000000e+00 1.000000000000000000e+01 0.000000000000000000e+00
6.000000000000000000e+00 1.000000000000000000e+01 0.000000000000000000e+00
7.000000000000000000e+00 1.000000000000000000e+01 0.000000000000000000e+00
8.000000000000000000e+00 1.000000000000000000e+01 0.000000000000000000e+00
9.000000000000000000e+00 1.000000000000000000e+01 0.000000000000000000e+00
1.000000000000000000e+01 1.000000000000000000e+01 0.000000000000000000e+00

CELLS 100 500
4 0 1 12 11
4 1 2 13 12
4 2 3 14 13
4 3 4 15 14
4 4 5 16 15
4 5 6 17 16
4 6 7 18 17
4 7 8 19 18
4 8 9 20 19
4 9 10 21 20
4 11 12 23 22
4 12 13 24 23
4 13 14 25 24
4 14 15 26 25
4 15 16 27 26
4 16 17 28 27
4 17 18 29 28
4 18 19 30 29
4 19 20 31 30
4 20 21 32 31
4 22 23 34 33
4 23 24 35 34
4 24 25 36 35
4 25 26 37 36
4 26 27 38 37
4 27 28 39 38
4 28 29 40 39
4 29 30 41 40
4 30 31 42 41
4 31 32 43 42
4 33 34 45 44
4 34 35 46 45
4 35 36 47 46
4 36 37 48 47
4 37 38 49 48
4 38 39 50 49
4 39 40 51 50
4 40 41 52 51
4 41 42 53 52
4 42 43 54 53
4 44 45 56 55
4 45 46 57 56
4 46 47 58 57
4 47 48 59 58
4 48 49 60 59
4 49 50 61 60
4 50 51 62 61
4 51 52 63 62
4 52 53 64 63
4 53 54 65 64
4 55 56 67 66
4 56 57 68 67
4 57 58 69 68
4 58 59 70 69
4 59 60 71 70
4 60 61 72 71
4 61 62 73 72
4 62 63 74 73
4 63 64 75 74
4 64 65 76 75
4 66 67 78 77
4 67 68 79 78
4 68 69 80 79
4 69 70 81 80
4 70 71 82 81
4 71 72 83 82
4 72 73 84 83
4 73 74 85 84
4 74 75 86 85
4 75 76 87 86
4 77 78 89 88
4 78 79 90 89
4 79 80 91 90
4 80 81 92 91
4 81 82 93 92
4 82 83 94 93
4 83 84 95 94
4 84 85 96 95
4 85 86 97 96
4 86 87 98 97
4 88 89 100 99
4 89 90 101 100
4 90 91 102 101
4 91 92 103 102
4 92 93 104 103
4 93 94 105 104
4 94 95 106 105
4 95 96 107 106
4 96 97 108 107
4 97 98 109 108
4 99 100 111 110
4 100 101 112 111
4 101 102 113 112
4 102 103 114 113
4 103 104 115 114
4 104 105 116 115
4 105 106 117 116
4 106 107 118 117
4 107 108 119 118
4 108 109 120 119
CELL_TYPES 100
9
9
9
9
9
9
9
9
9
9
9
9
9
9
9
9
9
9
9
9
9
9
9
9
9
9
9
9
9
9
9
9
9
9
9
9
9
9
9
9
9
9
9
9
9
9
9
9
9
9
9
9
9
9
9
9
9
9
9
9
9
9
9
9
9
9
9
9
9
9
9
9
9
9
9
9
9
9
9
9
9
9
9
9
9
9
9
9
9
9
9
9
9
9
9
9
9
9
9
9
POINT_DATA 121
SCALARS scalars float 1
LOOKUP_TABLE default
5.098594427108764648e-01
5.102193355560302734e-01
5.162490010261535645e-01
5.442407131195068359e-01
5.692431330680847168e-01
5.621035099029541016e-01
5.316298007965087891e-01
4.690828621387481689e-01
4.019826948642730713e-01
3.605193793773651123e-01
3.413856327533721924e-01
5.095103383064270020e-01
5.077747702598571777e-01
5.073959827423095703e-01
5.120294094085693359e-01
5.125817656517028809e-01
4.983502924442291260e-01
4.690896570682525635e-01
4.258564412593841553e-01
3.797774910926818848e-01
3.432741761207580566e-01
3.226384520530700684e-01
5.127156972885131836e-01
5.045622587203979492e-01
4.937992691993713379e-01
4.839299917221069336e-01
4.715218245983123779e-01
4.520029425621032715e-01
4.240586161613464355e-01
3.884922564029693604e-01
3.491413593292236328e-01
3.103511333465576172e-01
2.782172858715057373e-01
5.355803966522216797e-01
5.052518248558044434e-01
4.806725680828094482e-01
4.598274827003479004e-01
4.394546747207641602e-01
4.164475798606872559e-01
3.890631198883056641e-01
3.565915822982788086e-01
3.185305893421173096e-01
2.714449763298034668e-01
2.000000000000000111e-01
5.568193793296813965e-01
5.031858086585998535e-01
4.660857915878295898e-01
4.372194707393646240e-01
4.119212031364440918e-01
3.870608210563659668e-01
3.605409562587738037e-01
3.308155536651611328e-01
2.962335646152496338e-01
2.540338635444641113e-01
2.000000000000000111e-01
5.505849719047546387e-01
4.892620146274566650e-01
4.460996985435485840e-01
4.130454063415527344e-01
3.854835629463195801e-01
3.604318797588348389e-01
3.357027471065521240e-01
3.094306886196136475e-01
2.796342670917510986e-01
2.439169883728027344e-01
2.000000000000000111e-01
5.233010649681091309e-01
4.621398150920867920e-01
4.188305139541625977e-01
3.851093947887420654e-01
3.575952649116516113e-01
3.339616358280181885e-01
3.122048676013946533e-01
2.904202044010162354e-01
2.664160728454589844e-01
2.372765541076660156e-01
2.000000000000000111e-01
4.648730456829071045e-01
4.215632975101470947e-01
3.843500912189483643e-01
3.522814512252807617e-01
3.264652490615844727e-01
3.056832253932952881e-01
2.881510257720947266e-01
2.721550762653350830e-01
2.555501759052276611e-01
2.340999394655227661e-01
2.000000000000000111e-01
4.003813862800598145e-01
3.777736127376556396e-01
3.464098572731018066e-01
3.141511976718902588e-01
2.907414734363555908e-01
2.741389572620391846e-01
2.619875073432922363e-01
2.530937492847442627e-01
2.467634677886962891e-01
2.384042143821716309e-01
2.296104282140731812e-01
3.616944551467895508e-01
3.442452549934387207e-01
3.103860020637512207e-01
2.680525779724121094e-01
2.488941103219985962e-01
2.385322451591491699e-01
2.325252890586853027e-01
2.307073175907135010e-01
2.378696650266647339e-01
2.392805665731430054e-01
2.371345162391662598e-01
3.456633687019348145e-01
3.272680044174194336e-01
2.830227017402648926e-01
2.000000000000000111e-01
2.000000000000000111e-01
2.000000000000000111e-01
2.000000000000000111e-01
2.000000000000000111e-01
2.333835959434509277e-01
2.408360689878463745e-01
2.413588315248489380e-01
