# vtk DataFile Version 3.0
Heat radiator mesh: radiator_coarse
ASCII
DATASET UNSTRUCTURED_GRID
POINTS 1063 double
0.0 0.0 0.0
0.1 0.0 0.0
0.1 0.1 0.0
0.0 0.1 0.0
0.0 0.0 0.1
0.1 0.0 0.1
0.1 0.1 0.1
0.0 0.1 0.1
0.0 0.0 0.2
0.1 0.0 0.2
0.1 0.1 0.2
0.0 0.1 0.2
0.0 0.0 0.30000000000000004
0.1 0.0 0.30000000000000004
0.1 0.1 0.30000000000000004
0.0 0.1 0.30000000000000004
0.0 0.0 0.4
0.1 0.0 0.4
0.1 0.1 0.4
0.0 0.1 0.4
0.0 0.0 0.5
0.1 0.0 0.5
0.1 0.1 0.5
0.0 0.1 0.5
0.0 0.0 0.6000000000000001
0.1 0.0 0.6000000000000001
0.1 0.1 0.6000000000000001
0.0 0.1 0.6000000000000001
0.0 0.0 0.7000000000000001
0.1 0.0 0.7000000000000001
0.1 0.1 0.7000000000000001
0.0 0.1 0.7000000000000001
0.0 0.0 0.8
0.1 0.0 0.8
0.1 0.1 0.8
0.0 0.1 0.8
0.0 0.0 0.9
0.1 0.0 0.9
0.1 0.1 0.9
0.0 0.1 0.9
0.1 0.2 0.0
0.0 0.2 0.0
0.1 0.2 0.1
0.0 0.2 0.1
0.1 0.2 0.2
0.0 0.2 0.2
0.1 0.30000000000000004 0.0
0.0 0.30000000000000004 0.0
0.1 0.30000000000000004 0.1
0.0 0.30000000000000004 0.1
0.1 0.30000000000000004 0.2
0.0 0.30000000000000004 0.2
0.0 0.2 0.30000000000000004
0.1 0.2 0.30000000000000004
0.1 0.30000000000000004 0.30000000000000004
0.0 0.30000000000000004 0.30000000000000004
0.0 0.2 0.4
0.1 0.2 0.4
0.1 0.30000000000000004 0.4
0.0 0.30000000000000004 0.4
0.0 0.2 0.5
0.1 0.2 0.5
0.1 0.30000000000000004 0.5
0.0 0.30000000000000004 0.5
0.0 0.2 0.6000000000000001
0.1 0.2 0.6000000000000001
0.1 0.30000000000000004 0.6000000000000001
0.0 0.30000000000000004 0.6000000000000001
0.0 0.2 0.7000000000000001
0.1 0.2 0.7000000000000001
0.1 0.30000000000000004 0.7000000000000001
0.0 0.30000000000000004 0.7000000000000001
0.0 0.2 0.8
0.1 0.2 0.8
0.1 0.30000000000000004 0.8
0.0 0.30000000000000004 0.8
0.0 0.2 0.9
0.1 0.2 0.9
0.1 0.30000000000000004 0.9
0.0 0.30000000000000004 0.9
0.1 0.4 0.0
0.0 0.4 0.0
0.1 0.4 0.1
0.0 0.4 0.1
0.1 0.4 0.2
0.0 0.4 0.2
0.1 0.5 0.0
0.0 0.5 0.0
0.1 0.5 0.1
0.0 0.5 0.1
0.1 0.5 0.2
0.0 0.5 0.2
0.0 0.4 0.30000000000000004
0.1 0.4 0.30000000000000004
0.1 0.5 0.30000000000000004
0.0 0.5 0.30000000000000004
0.0 0.4 0.4
0.1 0.4 0.4
0.1 0.5 0.4
0.0 0.5 0.4
0.0 0.4 0.5
0.1 0.4 0.5
0.1 0.5 0.5
0.0 0.5 0.5
0.0 0.4 0.6000000000000001
0.1 0.4 0.6000000000000001
0.1 0.5 0.6000000000000001
0.0 0.5 0.6000000000000001
0.0 0.4 0.7000000000000001
0.1 0.4 0.7000000000000001
0.1 0.5 0.7000000000000001
0.0 0.5 0.7000000000000001
0.0 0.4 0.8
0.1 0.4 0.8
0.1 0.5 0.8
0.0 0.5 0.8
0.0 0.4 0.9
0.1 0.4 0.9
0.1 0.5 0.9
0.0 0.5 0.9
0.1 0.6000000000000001 0.0
0.0 0.6000000000000001 0.0
0.1 0.6000000000000001 0.1
0.0 0.6000000000000001 0.1
0.1 0.6000000000000001 0.2
0.0 0.6000000000000001 0.2
0.1 0.7000000000000001 0.0
0.0 0.7000000000000001 0.0
0.1 0.7000000000000001 0.1
0.0 0.7000000000000001 0.1
0.1 0.7000000000000001 0.2
0.0 0.7000000000000001 0.2
0.1 0.8 0.0
0.0 0.8 0.0
0.1 0.8 0.1
0.0 0.8 0.1
0.1 0.8 0.2
0.0 0.8 0.2
0.0 0.7000000000000001 0.30000000000000004
0.1 0.7000000000000001 0.30000000000000004
0.1 0.8 0.30000000000000004
0.0 0.8 0.30000000000000004
0.0 0.7000000000000001 0.4
0.1 0.7000000000000001 0.4
0.1 0.8 0.4
0.0 0.8 0.4
0.0 0.7000000000000001 0.5
0.1 0.7000000000000001 0.5
0.1 0.8 0.5
0.0 0.8 0.5
0.0 0.7000000000000001 0.6000000000000001
0.1 0.7000000000000001 0.6000000000000001
0.1 0.8 0.6000000000000001
0.0 0.8 0.6000000000000001
0.0 0.7000000000000001 0.7000000000000001
0.1 0.7000000000000001 0.7000000000000001
0.1 0.8 0.7000000000000001
0.0 0.8 0.7000000000000001
0.0 0.7000000000000001 0.8
0.1 0.7000000000000001 0.8
0.1 0.8 0.8
0.0 0.8 0.8
0.0 0.7000000000000001 0.9
0.1 0.7000000000000001 0.9
0.1 0.8 0.9
0.0 0.8 0.9
0.1 0.9 0.0
0.0 0.9 0.0
0.1 0.9 0.1
0.0 0.9 0.1
0.1 0.9 0.2
0.0 0.9 0.2
0.1 1.0 0.0
0.0 1.0 0.0
0.1 1.0 0.1
0.0 1.0 0.1
0.1 1.0 0.2
0.0 1.0 0.2
0.0 0.9 0.30000000000000004
0.1 0.9 0.30000000000000004
0.1 1.0 0.30000000000000004
0.0 1.0 0.30000000000000004
0.0 0.9 0.4
0.1 0.9 0.4
0.1 1.0 0.4
0.0 1.0 0.4
0.0 0.9 0.5
0.1 0.9 0.5
0.1 1.0 0.5
0.0 1.0 0.5
0.0 0.9 0.6000000000000001
0.1 0.9 0.6000000000000001
0.1 1.0 0.6000000000000001
0.0 1.0 0.6000000000000001
0.0 0.9 0.7000000000000001
0.1 0.9 0.7000000000000001
0.1 1.0 0.7000000000000001
0.0 1.0 0.7000000000000001
0.0 0.9 0.8
0.1 0.9 0.8
0.1 1.0 0.8
0.0 1.0 0.8
0.0 0.9 0.9
0.1 0.9 0.9
0.1 1.0 0.9
0.0 1.0 0.9
0.2 0.0 0.0
0.2 0.1 0.0
0.2 0.0 0.1
0.2 0.1 0.1
0.2 0.0 0.2
0.2 0.1 0.2
0.2 0.2 0.0
0.2 0.2 0.1
0.2 0.2 0.2
0.2 0.30000000000000004 0.0
0.2 0.30000000000000004 0.1
0.2 0.30000000000000004 0.2
0.2 0.4 0.0
0.2 0.4 0.1
0.2 0.4 0.2
0.2 0.5 0.0
0.2 0.5 0.1
0.2 0.5 0.2
0.2 0.6000000000000001 0.0
0.2 0.6000000000000001 0.1
0.2 0.6000000000000001 0.2
0.2 0.7000000000000001 0.0
0.2 0.7000000000000001 0.1
0.2 0.7000000000000001 0.2
0.2 0.8 0.0
0.2 0.8 0.1
0.2 0.8 0.2
0.2 0.9 0.0
0.2 0.9 0.1
0.2 0.9 0.2
0.2 1.0 0.0
0.2 1.0 0.1
0.2 1.0 0.2
0.30000000000000004 0.0 0.0
0.30000000000000004 0.1 0.0
0.30000000000000004 0.0 0.1
0.30000000000000004 0.1 0.1
0.30000000000000004 0.0 0.2
0.30000000000000004 0.1 0.2
0.2 0.0 0.30000000000000004
0.30000000000000004 0.0 0.30000000000000004
0.30000000000000004 0.1 0.30000000000000004
0.2 0.1 0.30000000000000004
0.2 0.0 0.4
0.30000000000000004 0.0 0.4
0.30000000000000004 0.1 0.4
0.2 0.1 0.4
0.2 0.0 0.5
0.30000000000000004 0.0 0.5
0.30000000000000004 0.1 0.5
0.2 0.1 0.5
0.2 0.0 0.6000000000000001
0.30000000000000004 0.0 0.6000000000000001
0.30000000000000004 0.1 0.6000000000000001
0.2 0.1 0.6000000000000001
0.2 0.0 0.7000000000000001
0.30000000000000004 0.0 0.7000000000000001
0.30000000000000004 0.1 0.7000000000000001
0.2 0.1 0.7000000000000001
0.2 0.0 0.8
0.30000000000000004 0.0 0.8
0.30000000000000004 0.1 0.8
0.2 0.1 0.8
0.2 0.0 0.9
0.30000000000000004 0.0 0.9
0.30000000000000004 0.1 0.9
0.2 0.1 0.9
0.30000000000000004 0.2 0.0
0.30000000000000004 0.2 0.1
0.30000000000000004 0.2 0.2
0.30000000000000004 0.30000000000000004 0.0
0.30000000000000004 0.30000000000000004 0.1
0.30000000000000004 0.30000000000000004 0.2
0.2 0.2 0.30000000000000004
0.30000000000000004 0.2 0.30000000000000004
0.30000000000000004 0.30000000000000004 0.30000000000000004
0.2 0.30000000000000004 0.30000000000000004
0.2 0.2 0.4
0.30000000000000004 0.2 0.4
0.30000000000000004 0.30000000000000004 0.4
0.2 0.30000000000000004 0.4
0.2 0.2 0.5
0.30000000000000004 0.2 0.5
0.30000000000000004 0.30000000000000004 0.5
0.2 0.30000000000000004 0.5
0.2 0.2 0.6000000000000001
0.30000000000000004 0.2 0.6000000000000001
0.30000000000000004 0.30000000000000004 0.6000000000000001
0.2 0.30000000000000004 0.6000000000000001
0.2 0.2 0.7000000000000001
0.30000000000000004 0.2 0.7000000000000001
0.30000000000000004 0.30000000000000004 0.7000000000000001
0.2 0.30000000000000004 0.7000000000000001
0.2 0.2 0.8
0.30000000000000004 0.2 0.8
0.30000000000000004 0.30000000000000004 0.8
0.2 0.30000000000000004 0.8
0.2 0.2 0.9
0.30000000000000004 0.2 0.9
0.30000000000000004 0.30000000000000004 0.9
0.2 0.30000000000000004 0.9
0.30000000000000004 0.4 0.0
0.30000000000000004 0.4 0.1
0.30000000000000004 0.4 0.2
0.30000000000000004 0.5 0.0
0.30000000000000004 0.5 0.1
0.30000000000000004 0.5 0.2
0.2 0.4 0.30000000000000004
0.30000000000000004 0.4 0.30000000000000004
0.30000000000000004 0.5 0.30000000000000004
0.2 0.5 0.30000000000000004
0.2 0.4 0.4
0.30000000000000004 0.4 0.4
0.30000000000000004 0.5 0.4
0.2 0.5 0.4
0.2 0.4 0.5
0.30000000000000004 0.4 0.5
0.30000000000000004 0.5 0.5
0.2 0.5 0.5
0.2 0.4 0.6000000000000001
0.30000000000000004 0.4 0.6000000000000001
0.30000000000000004 0.5 0.6000000000000001
0.2 0.5 0.6000000000000001
0.2 0.4 0.7000000000000001
0.30000000000000004 0.4 0.7000000000000001
0.30000000000000004 0.5 0.7000000000000001
0.2 0.5 0.7000000000000001
0.2 0.4 0.8
0.30000000000000004 0.4 0.8
0.30000000000000004 0.5 0.8
0.2 0.5 0.8
0.2 0.4 0.9
0.30000000000000004 0.4 0.9
0.30000000000000004 0.5 0.9
0.2 0.5 0.9
0.30000000000000004 0.6000000000000001 0.0
0.30000000000000004 0.6000000000000001 0.1
0.30000000000000004 0.6000000000000001 0.2
0.30000000000000004 0.7000000000000001 0.0
0.30000000000000004 0.7000000000000001 0.1
0.30000000000000004 0.7000000000000001 0.2
0.30000000000000004 0.8 0.0
0.30000000000000004 0.8 0.1
0.30000000000000004 0.8 0.2
0.2 0.7000000000000001 0.30000000000000004
0.30000000000000004 0.7000000000000001 0.30000000000000004
0.30000000000000004 0.8 0.30000000000000004
0.2 0.8 0.30000000000000004
0.2 0.7000000000000001 0.4
0.30000000000000004 0.7000000000000001 0.4
0.30000000000000004 0.8 0.4
0.2 0.8 0.4
0.2 0.7000000000000001 0.5
0.30000000000000004 0.7000000000000001 0.5
0.30000000000000004 0.8 0.5
0.2 0.8 0.5
0.2 0.7000000000000001 0.6000000000000001
0.30000000000000004 0.7000000000000001 0.6000000000000001
0.30000000000000004 0.8 0.6000000000000001
0.2 0.8 0.6000000000000001
0.2 0.7000000000000001 0.7000000000000001
0.30000000000000004 0.7000000000000001 0.7000000000000001
0.30000000000000004 0.8 0.7000000000000001
0.2 0.8 0.7000000000000001
0.2 0.7000000000000001 0.8
0.30000000000000004 0.7000000000000001 0.8
0.30000000000000004 0.8 0.8
0.2 0.8 0.8
0.2 0.7000000000000001 0.9
0.30000000000000004 0.7000000000000001 0.9
0.30000000000000004 0.8 0.9
0.2 0.8 0.9
0.30000000000000004 0.9 0.0
0.30000000000000004 0.9 0.1
0.30000000000000004 0.9 0.2
0.30000000000000004 1.0 0.0
0.30000000000000004 1.0 0.1
0.30000000000000004 1.0 0.2
0.2 0.9 0.30000000000000004
0.30000000000000004 0.9 0.30000000000000004
0.30000000000000004 1.0 0.30000000000000004
0.2 1.0 0.30000000000000004
0.2 0.9 0.4
0.30000000000000004 0.9 0.4
0.30000000000000004 1.0 0.4
0.2 1.0 0.4
0.2 0.9 0.5
0.30000000000000004 0.9 0.5
0.30000000000000004 1.0 0.5
0.2 1.0 0.5
0.2 0.9 0.6000000000000001
0.30000000000000004 0.9 0.6000000000000001
0.30000000000000004 1.0 0.6000000000000001
0.2 1.0 0.6000000000000001
0.2 0.9 0.7000000000000001
0.30000000000000004 0.9 0.7000000000000001
0.30000000000000004 1.0 0.7000000000000001
0.2 1.0 0.7000000000000001
0.2 0.9 0.8
0.30000000000000004 0.9 0.8
0.30000000000000004 1.0 0.8
0.2 1.0 0.8
0.2 0.9 0.9
0.30000000000000004 0.9 0.9
0.30000000000000004 1.0 0.9
0.2 1.0 0.9
0.4 0.0 0.0
0.4 0.1 0.0
0.4 0.0 0.1
0.4 0.1 0.1
0.4 0.0 0.2
0.4 0.1 0.2
0.4 0.2 0.0
0.4 0.2 0.1
0.4 0.2 0.2
0.4 0.30000000000000004 0.0
0.4 0.30000000000000004 0.1
0.4 0.30000000000000004 0.2
0.4 0.4 0.0
0.4 0.4 0.1
0.4 0.4 0.2
0.4 0.5 0.0
0.4 0.5 0.1
0.4 0.5 0.2
0.4 0.6000000000000001 0.0
0.4 0.6000000000000001 0.1
0.4 0.6000000000000001 0.2
0.4 0.7000000000000001 0.0
0.4 0.7000000000000001 0.1
0.4 0.7000000000000001 0.2
0.4 0.8 0.0
0.4 0.8 0.1
0.4 0.8 0.2
0.4 0.9 0.0
0.4 0.9 0.1
0.4 0.9 0.2
0.4 1.0 0.0
0.4 1.0 0.1
0.4 1.0 0.2
0.5 0.0 0.0
0.5 0.1 0.0
0.5 0.0 0.1
0.5 0.1 0.1
0.5 0.0 0.2
0.5 0.1 0.2
0.4 0.0 0.30000000000000004
0.5 0.0 0.30000000000000004
0.5 0.1 0.30000000000000004
0.4 0.1 0.30000000000000004
0.4 0.0 0.4
0.5 0.0 0.4
0.5 0.1 0.4
0.4 0.1 0.4
0.4 0.0 0.5
0.5 0.0 0.5
0.5 0.1 0.5
0.4 0.1 0.5
0.4 0.0 0.6000000000000001
0.5 0.0 0.6000000000000001
0.5 0.1 0.6000000000000001
0.4 0.1 0.6000000000000001
0.4 0.0 0.7000000000000001
0.5 0.0 0.7000000000000001
0.5 0.1 0.7000000000000001
0.4 0.1 0.7000000000000001
0.4 0.0 0.8
0.5 0.0 0.8
0.5 0.1 0.8
0.4 0.1 0.8
0.4 0.0 0.9
0.5 0.0 0.9
0.5 0.1 0.9
0.4 0.1 0.9
0.5 0.2 0.0
0.5 0.2 0.1
0.5 0.2 0.2
0.5 0.30000000000000004 0.0
0.5 0.30000000000000004 0.1
0.5 0.30000000000000004 0.2
0.4 0.2 0.30000000000000004
0.5 0.2 0.30000000000000004
0.5 0.30000000000000004 0.30000000000000004
0.4 0.30000000000000004 0.30000000000000004
0.4 0.2 0.4
0.5 0.2 0.4
0.5 0.30000000000000004 0.4
0.4 0.30000000000000004 0.4
0.4 0.2 0.5
0.5 0.2 0.5
0.5 0.30000000000000004 0.5
0.4 0.30000000000000004 0.5
0.4 0.2 0.6000000000000001
0.5 0.2 0.6000000000000001
0.5 0.30000000000000004 0.6000000000000001
0.4 0.30000000000000004 0.6000000000000001
0.4 0.2 0.7000000000000001
0.5 0.2 0.7000000000000001
0.5 0.30000000000000004 0.7000000000000001
0.4 0.30000000000000004 0.7000000000000001
0.4 0.2 0.8
0.5 0.2 0.8
0.5 0.30000000000000004 0.8
0.4 0.30000000000000004 0.8
0.4 0.2 0.9
0.5 0.2 0.9
0.5 0.30000000000000004 0.9
0.4 0.30000000000000004 0.9
0.5 0.4 0.0
0.5 0.4 0.1
0.5 0.4 0.2
0.5 0.5 0.0
0.5 0.5 0.1
0.5 0.5 0.2
0.4 0.4 0.30000000000000004
0.5 0.4 0.30000000000000004
0.5 0.5 0.30000000000000004
0.4 0.5 0.30000000000000004
0.4 0.4 0.4
0.5 0.4 0.4
0.5 0.5 0.4
0.4 0.5 0.4
0.4 0.4 0.5
0.5 0.4 0.5
0.5 0.5 0.5
0.4 0.5 0.5
0.4 0.4 0.6000000000000001
0.5 0.4 0.6000000000000001
0.5 0.5 0.6000000000000001
0.4 0.5 0.6000000000000001
0.4 0.4 0.7000000000000001
0.5 0.4 0.7000000000000001
0.5 0.5 0.7000000000000001
0.4 0.5 0.7000000000000001
0.4 0.4 0.8
0.5 0.4 0.8
0.5 0.5 0.8
0.4 0.5 0.8
0.4 0.4 0.9
0.5 0.4 0.9
0.5 0.5 0.9
0.4 0.5 0.9
0.5 0.6000000000000001 0.0
0.5 0.6000000000000001 0.1
0.5 0.6000000000000001 0.2
0.5 0.7000000000000001 0.0
0.5 0.7000000000000001 0.1
0.5 0.7000000000000001 0.2
0.5 0.8 0.0
0.5 0.8 0.1
0.5 0.8 0.2
0.4 0.7000000000000001 0.30000000000000004
0.5 0.7000000000000001 0.30000000000000004
0.5 0.8 0.30000000000000004
0.4 0.8 0.30000000000000004
0.4 0.7000000000000001 0.4
0.5 0.7000000000000001 0.4
0.5 0.8 0.4
0.4 0.8 0.4
0.4 0.7000000000000001 0.5
0.5 0.7000000000000001 0.5
0.5 0.8 0.5
0.4 0.8 0.5
0.4 0.7000000000000001 0.6000000000000001
0.5 0.7000000000000001 0.6000000000000001
0.5 0.8 0.6000000000000001
0.4 0.8 0.6000000000000001
0.4 0.7000000000000001 0.7000000000000001
0.5 0.7000000000000001 0.7000000000000001
0.5 0.8 0.7000000000000001
0.4 0.8 0.7000000000000001
0.4 0.7000000000000001 0.8
0.5 0.7000000000000001 0.8
0.5 0.8 0.8
0.4 0.8 0.8
0.4 0.7000000000000001 0.9
0.5 0.7000000000000001 0.9
0.5 0.8 0.9
0.4 0.8 0.9
0.5 0.9 0.0
0.5 0.9 0.1
0.5 0.9 0.2
0.5 1.0 0.0
0.5 1.0 0.1
0.5 1.0 0.2
0.4 0.9 0.30000000000000004
0.5 0.9 0.30000000000000004
0.5 1.0 0.30000000000000004
0.4 1.0 0.30000000000000004
0.4 0.9 0.4
0.5 0.9 0.4
0.5 1.0 0.4
0.4 1.0 0.4
0.4 0.9 0.5
0.5 0.9 0.5
0.5 1.0 0.5
0.4 1.0 0.5
0.4 0.9 0.6000000000000001
0.5 0.9 0.6000000000000001
0.5 1.0 0.6000000000000001
0.4 1.0 0.6000000000000001
0.4 0.9 0.7000000000000001
0.5 0.9 0.7000000000000001
0.5 1.0 0.7000000000000001
0.4 1.0 0.7000000000000001
0.4 0.9 0.8
0.5 0.9 0.8
0.5 1.0 0.8
0.4 1.0 0.8
0.4 0.9 0.9
0.5 0.9 0.9
0.5 1.0 0.9
0.4 1.0 0.9
0.6000000000000001 0.0 0.0
0.6000000000000001 0.1 0.0
0.6000000000000001 0.0 0.1
0.6000000000000001 0.1 0.1
0.6000000000000001 0.0 0.2
0.6000000000000001 0.1 0.2
0.6000000000000001 0.2 0.0
0.6000000000000001 0.2 0.1
0.6000000000000001 0.2 0.2
0.6000000000000001 0.30000000000000004 0.0
0.6000000000000001 0.30000000000000004 0.1
0.6000000000000001 0.30000000000000004 0.2
0.6000000000000001 0.4 0.0
0.6000000000000001 0.4 0.1
0.6000000000000001 0.4 0.2
0.6000000000000001 0.5 0.0
0.6000000000000001 0.5 0.1
0.6000000000000001 0.5 0.2
0.6000000000000001 0.6000000000000001 0.0
0.6000000000000001 0.6000000000000001 0.1
0.6000000000000001 0.6000000000000001 0.2
0.6000000000000001 0.7000000000000001 0.0
0.6000000000000001 0.7000000000000001 0.1
0.6000000000000001 0.7000000000000001 0.2
0.6000000000000001 0.8 0.0
0.6000000000000001 0.8 0.1
0.6000000000000001 0.8 0.2
0.6000000000000001 0.9 0.0
0.6000000000000001 0.9 0.1
0.6000000000000001 0.9 0.2
0.6000000000000001 1.0 0.0
0.6000000000000001 1.0 0.1
0.6000000000000001 1.0 0.2
0.7000000000000001 0.0 0.0
0.7000000000000001 0.1 0.0
0.7000000000000001 0.0 0.1
0.7000000000000001 0.1 0.1
0.7000000000000001 0.0 0.2
0.7000000000000001 0.1 0.2
0.7000000000000001 0.2 0.0
0.7000000000000001 0.2 0.1
0.7000000000000001 0.2 0.2
0.7000000000000001 0.30000000000000004 0.0
0.7000000000000001 0.30000000000000004 0.1
0.7000000000000001 0.30000000000000004 0.2
0.7000000000000001 0.4 0.0
0.7000000000000001 0.4 0.1
0.7000000000000001 0.4 0.2
0.7000000000000001 0.5 0.0
0.7000000000000001 0.5 0.1
0.7000000000000001 0.5 0.2
0.7000000000000001 0.6000000000000001 0.0
0.7000000000000001 0.6000000000000001 0.1
0.7000000000000001 0.6000000000000001 0.2
0.7000000000000001 0.7000000000000001 0.0
0.7000000000000001 0.7000000000000001 0.1
0.7000000000000001 0.7000000000000001 0.2
0.7000000000000001 0.8 0.0
0.7000000000000001 0.8 0.1
0.7000000000000001 0.8 0.2
0.7000000000000001 0.9 0.0
0.7000000000000001 0.9 0.1
0.7000000000000001 0.9 0.2
0.7000000000000001 1.0 0.0
0.7000000000000001 1.0 0.1
0.7000000000000001 1.0 0.2
0.8 0.0 0.0
0.8 0.1 0.0
0.8 0.0 0.1
0.8 0.1 0.1
0.8 0.0 0.2
0.8 0.1 0.2
0.7000000000000001 0.0 0.30000000000000004
0.8 0.0 0.30000000000000004
0.8 0.1 0.30000000000000004
0.7000000000000001 0.1 0.30000000000000004
0.7000000000000001 0.0 0.4
0.8 0.0 0.4
0.8 0.1 0.4
0.7000000000000001 0.1 0.4
0.7000000000000001 0.0 0.5
0.8 0.0 0.5
0.8 0.1 0.5
0.7000000000000001 0.1 0.5
0.7000000000000001 0.0 0.6000000000000001
0.8 0.0 0.6000000000000001
0.8 0.1 0.6000000000000001
0.7000000000000001 0.1 0.6000000000000001
0.7000000000000001 0.0 0.7000000000000001
0.8 0.0 0.7000000000000001
0.8 0.1 0.7000000000000001
0.7000000000000001 0.1 0.7000000000000001
0.7000000000000001 0.0 0.8
0.8 0.0 0.8
0.8 0.1 0.8
0.7000000000000001 0.1 0.8
0.7000000000000001 0.0 0.9
0.8 0.0 0.9
0.8 0.1 0.9
0.7000000000000001 0.1 0.9
0.8 0.2 0.0
0.8 0.2 0.1
0.8 0.2 0.2
0.8 0.30000000000000004 0.0
0.8 0.30000000000000004 0.1
0.8 0.30000000000000004 0.2
0.7000000000000001 0.2 0.30000000000000004
0.8 0.2 0.30000000000000004
0.8 0.30000000000000004 0.30000000000000004
0.7000000000000001 0.30000000000000004 0.30000000000000004
0.7000000000000001 0.2 0.4
0.8 0.2 0.4
0.8 0.30000000000000004 0.4
0.7000000000000001 0.30000000000000004 0.4
0.7000000000000001 0.2 0.5
0.8 0.2 0.5
0.8 0.30000000000000004 0.5
0.7000000000000001 0.30000000000000004 0.5
0.7000000000000001 0.2 0.6000000000000001
0.8 0.2 0.6000000000000001
0.8 0.30000000000000004 0.6000000000000001
0.7000000000000001 0.30000000000000004 0.6000000000000001
0.7000000000000001 0.2 0.7000000000000001
0.8 0.2 0.7000000000000001
0.8 0.30000000000000004 0.7000000000000001
0.7000000000000001 0.30000000000000004 0.7000000000000001
0.7000000000000001 0.2 0.8
0.8 0.2 0.8
0.8 0.30000000000000004 0.8
0.7000000000000001 0.30000000000000004 0.8
0.7000000000000001 0.2 0.9
0.8 0.2 0.9
0.8 0.30000000000000004 0.9
0.7000000000000001 0.30000000000000004 0.9
0.8 0.4 0.0
0.8 0.4 0.1
0.8 0.4 0.2
0.8 0.5 0.0
0.8 0.5 0.1
0.8 0.5 0.2
0.7000000000000001 0.4 0.30000000000000004
0.8 0.4 0.30000000000000004
0.8 0.5 0.30000000000000004
0.7000000000000001 0.5 0.30000000000000004
0.7000000000000001 0.4 0.4
0.8 0.4 0.4
0.8 0.5 0.4
0.7000000000000001 0.5 0.4
0.7000000000000001 0.4 0.5
0.8 0.4 0.5
0.8 0.5 0.5
0.7000000000000001 0.5 0.5
0.7000000000000001 0.4 0.6000000000000001
0.8 0.4 0.6000000000000001
0.8 0.5 0.6000000000000001
0.7000000000000001 0.5 0.6000000000000001
0.7000000000000001 0.4 0.7000000000000001
0.8 0.4 0.7000000000000001
0.8 0.5 0.7000000000000001
0.7000000000000001 0.5 0.7000000000000001
0.7000000000000001 0.4 0.8
0.8 0.4 0.8
0.8 0.5 0.8
0.7000000000000001 0.5 0.8
0.7000000000000001 0.4 0.9
0.8 0.4 0.9
0.8 0.5 0.9
0.7000000000000001 0.5 0.9
0.8 0.6000000000000001 0.0
0.8 0.6000000000000001 0.1
0.8 0.6000000000000001 0.2
0.8 0.7000000000000001 0.0
0.8 0.7000000000000001 0.1
0.8 0.7000000000000001 0.2
0.8 0.8 0.0
0.8 0.8 0.1
0.8 0.8 0.2
0.7000000000000001 0.7000000000000001 0.30000000000000004
0.8 0.7000000000000001 0.30000000000000004
0.8 0.8 0.30000000000000004
0.7000000000000001 0.8 0.30000000000000004
0.7000000000000001 0.7000000000000001 0.4
0.8 0.7000000000000001 0.4
0.8 0.8 0.4
0.7000000000000001 0.8 0.4
0.7000000000000001 0.7000000000000001 0.5
0.8 0.7000000000000001 0.5
0.8 0.8 0.5
0.7000000000000001 0.8 0.5
0.7000000000000001 0.7000000000000001 0.6000000000000001
0.8 0.7000000000000001 0.6000000000000001
0.8 0.8 0.6000000000000001
0.7000000000000001 0.8 0.6000000000000001
0.7000000000000001 0.7000000000000001 0.7000000000000001
0.8 0.7000000000000001 0.7000000000000001
0.8 0.8 0.7000000000000001
0.7000000000000001 0.8 0.7000000000000001
0.7000000000000001 0.7000000000000001 0.8
0.8 0.7000000000000001 0.8
0.8 0.8 0.8
0.7000000000000001 0.8 0.8
0.7000000000000001 0.7000000000000001 0.9
0.8 0.7000000000000001 0.9
0.8 0.8 0.9
0.7000000000000001 0.8 0.9
0.8 0.9 0.0
0.8 0.9 0.1
0.8 0.9 0.2
0.8 1.0 0.0
0.8 1.0 0.1
0.8 1.0 0.2
0.7000000000000001 0.9 0.30000000000000004
0.8 0.9 0.30000000000000004
0.8 1.0 0.30000000000000004
0.7000000000000001 1.0 0.30000000000000004
0.7000000000000001 0.9 0.4
0.8 0.9 0.4
0.8 1.0 0.4
0.7000000000000001 1.0 0.4
0.7000000000000001 0.9 0.5
0.8 0.9 0.5
0.8 1.0 0.5
0.7000000000000001 1.0 0.5
0.7000000000000001 0.9 0.6000000000000001
0.8 0.9 0.6000000000000001
0.8 1.0 0.6000000000000001
0.7000000000000001 1.0 0.6000000000000001
0.7000000000000001 0.9 0.7000000000000001
0.8 0.9 0.7000000000000001
0.8 1.0 0.7000000000000001
0.7000000000000001 1.0 0.7000000000000001
0.7000000000000001 0.9 0.8
0.8 0.9 0.8
0.8 1.0 0.8
0.7000000000000001 1.0 0.8
0.7000000000000001 0.9 0.9
0.8 0.9 0.9
0.8 1.0 0.9
0.7000000000000001 1.0 0.9
0.9 0.0 0.0
0.9 0.1 0.0
0.9 0.0 0.1
0.9 0.1 0.1
0.9 0.0 0.2
0.9 0.1 0.2
0.9 0.2 0.0
0.9 0.2 0.1
0.9 0.2 0.2
0.9 0.30000000000000004 0.0
0.9 0.30000000000000004 0.1
0.9 0.30000000000000004 0.2
0.9 0.4 0.0
0.9 0.4 0.1
0.9 0.4 0.2
0.9 0.5 0.0
0.9 0.5 0.1
0.9 0.5 0.2
0.9 0.6000000000000001 0.0
0.9 0.6000000000000001 0.1
0.9 0.6000000000000001 0.2
0.9 0.7000000000000001 0.0
0.9 0.7000000000000001 0.1
0.9 0.7000000000000001 0.2
0.9 0.8 0.0
0.9 0.8 0.1
0.9 0.8 0.2
0.9 0.9 0.0
0.9 0.9 0.1
0.9 0.9 0.2
0.9 1.0 0.0
0.9 1.0 0.1
0.9 1.0 0.2
1.0 0.0 0.0
1.0 0.1 0.0
1.0 0.0 0.1
1.0 0.1 0.1
1.0 0.0 0.2
1.0 0.1 0.2
0.9 0.0 0.30000000000000004
1.0 0.0 0.30000000000000004
1.0 0.1 0.30000000000000004
0.9 0.1 0.30000000000000004
0.9 0.0 0.4
1.0 0.0 0.4
1.0 0.1 0.4
0.9 0.1 0.4
0.9 0.0 0.5
1.0 0.0 0.5
1.0 0.1 0.5
0.9 0.1 0.5
0.9 0.0 0.6000000000000001
1.0 0.0 0.6000000000000001
1.0 0.1 0.6000000000000001
0.9 0.1 0.6000000000000001
0.9 0.0 0.7000000000000001
1.0 0.0 0.7000000000000001
1.0 0.1 0.7000000000000001
0.9 0.1 0.7000000000000001
0.9 0.0 0.8
1.0 0.0 0.8
1.0 0.1 0.8
0.9 0.1 0.8
0.9 0.0 0.9
1.0 0.0 0.9
1.0 0.1 0.9
0.9 0.1 0.9
1.0 0.2 0.0
1.0 0.2 0.1
1.0 0.2 0.2
1.0 0.30000000000000004 0.0
1.0 0.30000000000000004 0.1
1.0 0.30000000000000004 0.2
0.9 0.2 0.30000000000000004
1.0 0.2 0.30000000000000004
1.0 0.30000000000000004 0.30000000000000004
0.9 0.30000000000000004 0.30000000000000004
0.9 0.2 0.4
1.0 0.2 0.4
1.0 0.30000000000000004 0.4
0.9 0.30000000000000004 0.4
0.9 0.2 0.5
1.0 0.2 0.5
1.0 0.30000000000000004 0.5
0.9 0.30000000000000004 0.5
0.9 0.2 0.6000000000000001
1.0 0.2 0.6000000000000001
1.0 0.30000000000000004 0.6000000000000001
0.9 0.30000000000000004 0.6000000000000001
0.9 0.2 0.7000000000000001
1.0 0.2 0.7000000000000001
1.0 0.30000000000000004 0.7000000000000001
0.9 0.30000000000000004 0.7000000000000001
0.9 0.2 0.8
1.0 0.2 0.8
1.0 0.30000000000000004 0.8
0.9 0.30000000000000004 0.8
0.9 0.2 0.9
1.0 0.2 0.9
1.0 0.30000000000000004 0.9
0.9 0.30000000000000004 0.9
1.0 0.4 0.0
1.0 0.4 0.1
1.0 0.4 0.2
1.0 0.5 0.0
1.0 0.5 0.1
1.0 0.5 0.2
0.9 0.4 0.30000000000000004
1.0 0.4 0.30000000000000004
1.0 0.5 0.30000000000000004
0.9 0.5 0.30000000000000004
0.9 0.4 0.4
1.0 0.4 0.4
1.0 0.5 0.4
0.9 0.5 0.4
0.9 0.4 0.5
1.0 0.4 0.5
1.0 0.5 0.5
0.9 0.5 0.5
0.9 0.4 0.6000000000000001
1.0 0.4 0.6000000000000001
1.0 0.5 0.6000000000000001
0.9 0.5 0.6000000000000001
0.9 0.4 0.7000000000000001
1.0 0.4 0.7000000000000001
1.0 0.5 0.7000000000000001
0.9 0.5 0.7000000000000001
0.9 0.4 0.8
1.0 0.4 0.8
1.0 0.5 0.8
0.9 0.5 0.8
0.9 0.4 0.9
1.0 0.4 0.9
1.0 0.5 0.9
0.9 0.5 0.9
1.0 0.6000000000000001 0.0
1.0 0.6000000000000001 0.1
1.0 0.6000000000000001 0.2
1.0 0.7000000000000001 0.0
1.0 0.7000000000000001 0.1
1.0 0.7000000000000001 0.2
1.0 0.8 0.0
1.0 0.8 0.1
1.0 0.8 0.2
0.9 0.7000000000000001 0.30000000000000004
1.0 0.7000000000000001 0.30000000000000004
1.0 0.8 0.30000000000000004
0.9 0.8 0.30000000000000004
0.9 0.7000000000000001 0.4
1.0 0.7000000000000001 0.4
1.0 0.8 0.4
0.9 0.8 0.4
0.9 0.7000000000000001 0.5
1.0 0.7000000000000001 0.5
1.0 0.8 0.5
0.9 0.8 0.5
0.9 0.7000000000000001 0.6000000000000001
1.0 0.7000000000000001 0.6000000000000001
1.0 0.8 0.6000000000000001
0.9 0.8 0.6000000000000001
0.9 0.7000000000000001 0.7000000000000001
1.0 0.7000000000000001 0.7000000000000001
1.0 0.8 0.7000000000000001
0.9 0.8 0.7000000000000001
0.9 0.7000000000000001 0.8
1.0 0.7000000000000001 0.8
1.0 0.8 0.8
0.9 0.8 0.8
0.9 0.7000000000000001 0.9
1.0 0.7000000000000001 0.9
1.0 0.8 0.9
0.9 0.8 0.9
1.0 0.9 0.0
1.0 0.9 0.1
1.0 0.9 0.2
1.0 1.0 0.0
1.0 1.0 0.1
1.0 1.0 0.2
0.9 0.9 0.30000000000000004
1.0 0.9 0.30000000000000004
1.0 1.0 0.30000000000000004
0.9 1.0 0.30000000000000004
0.9 0.9 0.4
1.0 0.9 0.4
1.0 1.0 0.4
0.9 1.0 0.4
0.9 0.9 0.5
1.0 0.9 0.5
1.0 1.0 0.5
0.9 1.0 0.5
0.9 0.9 0.6000000000000001
1.0 0.9 0.6000000000000001
1.0 1.0 0.6000000000000001
0.9 1.0 0.6000000000000001
0.9 0.9 0.7000000000000001
1.0 0.9 0.7000000000000001
1.0 1.0 0.7000000000000001
0.9 1.0 0.7000000000000001
0.9 0.9 0.8
1.0 0.9 0.8
1.0 1.0 0.8
0.9 1.0 0.8
0.9 0.9 0.9
1.0 0.9 0.9
1.0 1.0 0.9
0.9 1.0 0.9
CELLS 375 3375
8 0 1 2 3 4 5 6 7
8 4 5 6 7 8 9 10 11
8 8 9 10 11 12 13 14 15
8 12 13 14 15 16 17 18 19
8 16 17 18 19 20 21 22 23
8 20 21 22 23 24 25 26 27
8 24 25 26 27 28 29 30 31
8 28 29 30 31 32 33 34 35
8 32 33 34 35 36 37 38 39
8 3 2 40 41 7 6 42 43
8 7 6 42 43 11 10 44 45
8 41 40 46 47 43 42 48 49
8 43 42 48 49 45 44 50 51
8 45 44 50 51 52 53 54 55
8 52 53 54 55 56 57 58 59
8 56 57 58 59 60 61 62 63
8 60 61 62 63 64 65 66 67
8 64 65 66 67 68 69 70 71
8 68 69 70 71 72 73 74 75
8 72 73 74 75 76 77 78 79
8 47 46 80 81 49 48 82 83
8 49 48 82 83 51 50 84 85
8 81 80 86 87 83 82 88 89
8 83 82 88 89 85 84 90 91
8 85 84 90 91 92 93 94 95
8 92 93 94 95 96 97 98 99
8 96 97 98 99 100 101 102 103
8 100 101 102 103 104 105 106 107
8 104 105 106 107 108 109 110 111
8 108 109 110 111 112 113 114 115
8 112 113 114 115 116 117 118 119
8 87 86 120 121 89 88 122 123
8 89 88 122 123 91 90 124 125
8 121 120 126 127 123 122 128 129
8 123 122 128 129 125 124 130 131
8 127 126 132 133 129 128 134 135
8 129 128 134 135 131 130 136 137
8 131 130 136 137 138 139 140 141
8 138 139 140 141 142 143 144 145
8 142 143 144 145 146 147 148 149
8 146 147 148 149 150 151 152 153
8 150 151 152 153 154 155 156 157
8 154 155 156 157 158 159 160 161
8 158 159 160 161 162 163 164 165
8 133 132 166 167 135 134 168 169
8 135 134 168 169 137 136 170 171
8 167 166 172 173 169 168 174 175
8 169 168 174 175 171 170 176 177
8 171 170 176 177 178 179 180 181
8 178 179 180 181 182 183 184 185
8 182 183 184 185 186 187 188 189
8 186 187 188 189 190 191 192 193
8 190 191 192 193 194 195 196 197
8 194 195 196 197 198 199 200 201
8 198 199 200 201 202 203 204 205
8 1 206 207 2 5 208 209 6
8 5 208 209 6 9 210 211 10
8 2 207 212 40 6 209 213 42
8 6 209 213 42 10 211 214 44
8 40 212 215 46 42 213 216 48
8 42 213 216 48 44 214 217 50
8 46 215 218 80 48 216 219 82
8 48 216 219 82 50 217 220 84
8 80 218 221 86 82 219 222 88
8 82 219 222 88 84 220 223 90
8 86 221 224 120 88 222 225 122
8 88 222 225 122 90 223 226 124
8 120 224 227 126 122 225 228 128
8 122 225 228 128 124 226 229 130
8 126 227 230 132 128 228 231 134
8 128 228 231 134 130 229 232 136
8 132 230 233 166 134 231 234 168
8 134 231 234 168 136 232 235 170
8 166 233 236 172 168 234 237 174
8 168 234 237 174 170 235 238 176
8 206 239 240 207 208 241 242 209
8 208 241 242 209 210 243 244 211
8 210 243 244 211 245 246 247 248
8 245 246 247 248 249 250 251 252
8 249 250 251 252 253 254 255 256
8 253 254 255 256 257 258 259 260
8 257 258 259 260 261 262 263 264
8 261 262 263 264 265 266 267 268
8 265 266 267 268 269 270 271 272
8 207 240 273 212 209 242 274 213
8 209 242 274 213 211 244 275 214
8 212 273 276 215 213 274 277 216
8 213 274 277 216 214 275 278 217
8 214 275 278 217 279 280 281 282
8 279 280 281 282 283 284 285 286
8 283 284 285 286 287 288 289 290
8 287 288 289 290 291 292 293 294
8 291 292 293 294 295 296 297 298
8 295 296 297 298 299 300 301 302
8 299 300 301 302 303 304 305 306
8 215 276 307 218 216 277 308 219
8 216 277 308 219 217 278 309 220
8 218 307 310 221 219 308 311 222
8 219 308 311 222 220 309 312 223
8 220 309 312 223 313 314 315 316
8 313 314 315 316 317 318 319 320
8 317 318 319 320 321 322 323 324
8 321 322 323 324 325 326 327 328
8 325 326 327 328 329 330 331 332
8 329 330 331 332 333 334 335 336
8 333 334 335 336 337 338 339 340
8 221 310 341 224 222 311 342 225
8 222 311 342 225 223 312 343 226
8 224 341 344 227 225 342 345 228
8 225 342 345 228 226 343 346 229
8 227 344 347 230 228 345 348 231
8 228 345 348 231 229 346 349 232
8 229 346 349 232 350 351 352 353
8 350 351 352 353 354 355 356 357
8 354 355 356 357 358 359 360 361
8 358 359 360 361 362 363 364 365
8 362 363 364 365 366 367 368 369
8 366 367 368 369 370 371 372 373
8 370 371 372 373 374 375 376 377
8 230 347 378 233 231 348 379 234
8 231 348 379 234 232 349 380 235
8 233 378 381 236 234 379 382 237
8 234 379 382 237 235 380 383 238
8 235 380 383 238 384 385 386 387
8 384 385 386 387 388 389 390 391
8 388 389 390 391 392 393 394 395
8 392 393 394 395 396 397 398 399
8 396 397 398 399 400 401 402 403
8 400 401 402 403 404 405 406 407
8 404 405 406 407 408 409 410 411
8 239 412 413 240 241 414 415 242
8 241 414 415 242 243 416 417 244
8 240 413 418 273 242 415 419 274
8 242 415 419 274 244 417 420 275
8 273 418 421 276 274 419 422 277
8 274 419 422 277 275 420 423 278
8 276 421 424 307 277 422 425 308
8 277 422 425 308 278 423 426 309
8 307 424 427 310 308 425 428 311
8 308 425 428 311 309 426 429 312
8 310 427 430 341 311 428 431 342
8 311 428 431 342 312 429 432 343
8 341 430 433 344 342 431 434 345
8 342 431 434 345 343 432 435 346
8 344 433 436 347 345 434 437 348
8 345 434 437 348 346 435 438 349
8 347 436 439 378 348 437 440 379
8 348 437 440 379 349 438 441 380
8 378 439 442 381 379 440 443 382
8 379 440 443 382 380 441 444 383
8 412 445 446 413 414 447 448 415
8 414 447 448 415 416 449 450 417
8 416 449 450 417 451 452 453 454
8 451 452 453 454 455 456 457 458
8 455 456 457 458 459 460 461 462
8 459 460 461 462 463 464 465 466
8 463 464 465 466 467 468 469 470
8 467 468 469 470 471 472 473 474
8 471 472 473 474 475 476 477 478
8 413 446 479 418 415 448 480 419
8 415 448 480 419 417 450 481 420
8 418 479 482 421 419 480 483 422
8 419 480 483 422 420 481 484 423
8 420 481 484 423 485 486 487 488
8 485 486 487 488 489 490 491 492
8 489 490 491 492 493 494 495 496
8 493 494 495 496 497 498 499 500
8 497 498 499 500 501 502 503 504
8 501 502 503 504 505 506 507 508
8 505 506 507 508 509 510 511 512
8 421 482 513 424 422 483 514 425
8 422 483 514 425 423 484 515 426
8 424 513 516 427 425 514 517 428
8 425 514 517 428 426 515 518 429
8 426 515 518 429 519 520 521 522
8 519 520 521 522 523 524 525 526
8 523 524 525 526 527 528 529 530
8 527 528 529 530 531 532 533 534
8 531 532 533 534 535 536 537 538
8 535 536 537 538 539 540 541 542
8 539 540 541 542 543 544 545 546
8 427 516 547 430 428 517 548 431
8 428 517 548 431 429 518 549 432
8 430 547 550 433 431 548 551 434
8 431 548 551 434 432 549 552 435
8 433 550 553 436 434 551 554 437
8 434 551 554 437 435 552 555 438
8 435 552 555 438 556 557 558 559
8 556 557 558 559 560 561 562 563
8 560 561 562 563 564 565 566 567
8 564 565 566 567 568 569 570 571
8 568 569 570 571 572 573 574 575
8 572 573 574 575 576 577 578 579
8 576 577 578 579 580 581 582 583
8 436 553 584 439 437 554 585 440
8 437 554 585 440 438 555 586 441
8 439 584 587 442 440 585 588 443
8 440 585 588 443 441 586 589 444
8 441 586 589 444 590 591 592 593
8 590 591 592 593 594 595 596 597
8 594 595 596 597 598 599 600 601
8 598 599 600 601 602 603 604 605
8 602 603 604 605 606 607 608 609
8 606 607 608 609 610 611 612 613
8 610 611 612 613 614 615 616 617
8 445 618 619 446 447 620 621 448
8 447 620 621 448 449 622 623 450
8 446 619 624 479 448 621 625 480
8 448 621 625 480 450 623 626 481
8 479 624 627 482 480 625 628 483
8 480 625 628 483 481 626 629 484
8 482 627 630 513 483 628 631 514
8 483 628 631 514 484 629 632 515
8 513 630 633 516 514 631 634 517
8 514 631 634 517 515 632 635 518
8 516 633 636 547 517 634 637 548
8 517 634 637 548 518 635 638 549
8 547 636 639 550 548 637 640 551
8 548 637 640 551 549 638 641 552
8 550 639 642 553 551 640 643 554
8 551 640 643 554 552 641 644 555
8 553 642 645 584 554 643 646 585
8 554 643 646 585 555 644 647 586
8 584 645 648 587 585 646 649 588
8 585 646 649 588 586 647 650 589
8 618 651 652 619 620 653 654 621
8 620 653 654 621 622 655 656 623
8 619 652 657 624 621 654 658 625
8 621 654 658 625 623 656 659 626
8 624 657 660 627 625 658 661 628
8 625 658 661 628 626 659 662 629
8 627 660 663 630 628 661 664 631
8 628 661 664 631 629 662 665 632
8 630 663 666 633 631 664 667 634
8 631 664 667 634 632 665 668 635
8 633 666 669 636 634 667 670 637
8 634 667 670 637 635 668 671 638
8 636 669 672 639 637 670 673 640
8 637 670 673 640 638 671 674 641
8 639 672 675 642 640 673 676 643
8 640 673 676 643 641 674 677 644
8 642 675 678 645 643 676 679 646
8 643 676 679 646 644 677 680 647
8 645 678 681 648 646 679 682 649
8 646 679 682 649 647 680 683 650
8 651 684 685 652 653 686 687 654
8 653 686 687 654 655 688 689 656
8 655 688 689 656 690 691 692 693
8 690 691 692 693 694 695 696 697
8 694 695 696 697 698 699 700 701
8 698 699 700 701 702 703 704 705
8 702 703 704 705 706 707 708 709
8 706 707 708 709 710 711 712 713
8 710 711 712 713 714 715 716 717
8 652 685 718 657 654 687 719 658
8 654 687 719 658 656 689 720 659
8 657 718 721 660 658 719 722 661
8 658 719 722 661 659 720 723 662
8 659 720 723 662 724 725 726 727
8 724 725 726 727 728 729 730 731
8 728 729 730 731 732 733 734 735
8 732 733 734 735 736 737 738 739
8 736 737 738 739 740 741 742 743
8 740 741 742 743 744 745 746 747
8 744 745 746 747 748 749 750 751
8 660 721 752 663 661 722 753 664
8 661 722 753 664 662 723 754 665
8 663 752 755 666 664 753 756 667
8 664 753 756 667 665 754 757 668
8 665 754 757 668 758 759 760 761
8 758 759 760 761 762 763 764 765
8 762 763 764 765 766 767 768 769
8 766 767 768 769 770 771 772 773
8 770 771 772 773 774 775 776 777
8 774 775 776 777 778 779 780 781
8 778 779 780 781 782 783 784 785
8 666 755 786 669 667 756 787 670
8 667 756 787 670 668 757 788 671
8 669 786 789 672 670 787 790 673
8 670 787 790 673 671 788 791 674
8 672 789 792 675 673 790 793 676
8 673 790 793 676 674 791 794 677
8 674 791 794 677 795 796 797 798
8 795 796 797 798 799 800 801 802
8 799 800 801 802 803 804 805 806
8 803 804 805 806 807 808 809 810
8 807 808 809 810 811 812 813 814
8 811 812 813 814 815 816 817 818
8 815 816 817 818 819 820 821 822
8 675 792 823 678 676 793 824 679
8 676 793 824 679 677 794 825 680
8 678 823 826 681 679 824 827 682
8 679 824 827 682 680 825 828 683
8 680 825 828 683 829 830 831 832
8 829 830 831 832 833 834 835 836
8 833 834 835 836 837 838 839 840
8 837 838 839 840 841 842 843 844
8 841 842 843 844 845 846 847 848
8 845 846 847 848 849 850 851 852
8 849 850 851 852 853 854 855 856
8 684 857 858 685 686 859 860 687
8 686 859 860 687 688 861 862 689
8 685 858 863 718 687 860 864 719
8 687 860 864 719 689 862 865 720
8 718 863 866 721 719 864 867 722
8 719 864 867 722 720 865 868 723
8 721 866 869 752 722 867 870 753
8 722 867 870 753 723 868 871 754
8 752 869 872 755 753 870 873 756
8 753 870 873 756 754 871 874 757
8 755 872 875 786 756 873 876 787
8 756 873 876 787 757 874 877 788
8 786 875 878 789 787 876 879 790
8 787 876 879 790 788 877 880 791
8 789 878 881 792 790 879 882 793
8 790 879 882 793 791 880 883 794
8 792 881 884 823 793 882 885 824
8 793 882 885 824 794 883 886 825
8 823 884 887 826 824 885 888 827
8 824 885 888 827 825 886 889 828
8 857 890 891 858 859 892 893 860
8 859 892 893 860 861 894 895 862
8 861 894 895 862 896 897 898 899
8 896 897 898 899 900 901 902 903
8 900 901 902 903 904 905 906 907
8 904 905 906 907 908 909 910 911
8 908 909 910 911 912 913 914 915
8 912 913 914 915 916 917 918 919
8 916 917 918 919 920 921 922 923
8 858 891 924 863 860 893 925 864
8 860 893 925 864 862 895 926 865
8 863 924 927 866 864 925 928 867
8 864 925 928 867 865 926 929 868
8 865 926 929 868 930 931 932 933
8 930 931 932 933 934 935 936 937
8 934 935 936 937 938 939 940 941
8 938 939 940 941 942 943 944 945
8 942 943 944 945 946 947 948 949
8 946 947 948 949 950 951 952 953
8 950 951 952 953 954 955 956 957
8 866 927 958 869 867 928 959 870
8 867 928 959 870 868 929 960 871
8 869 958 961 872 870 959 962 873
8 870 959 962 873 871 960 963 874
8 871 960 963 874 964 965 966 967
8 964 965 966 967 968 969 970 971
8 968 969 970 971 972 973 974 975
8 972 973 974 975 976 977 978 979
8 976 977 978 979 980 981 982 983
8 980 981 982 983 984 985 986 987
8 984 985 986 987 988 989 990 991
8 872 961 992 875 873 962 993 876
8 873 962 993 876 874 963 994 877
8 875 992 995 878 876 993 996 879
8 876 993 996 879 877 994 997 880
8 878 995 998 881 879 996 999 882
8 879 996 999 882 880 997 1000 883
8 880 997 1000 883 1001 1002 1003 1004
8 1001 1002 1003 1004 1005 1006 1007 1008
8 1005 1006 1007 1008 1009 1010 1011 1012
8 1009 1010 1011 1012 1013 1014 1015 1016
8 1013 1014 1015 1016 1017 1018 1019 1020
8 1017 1018 1019 1020 1021 1022 1023 1024
8 1021 1022 1023 1024 1025 1026 1027 1028
8 881 998 1029 884 882 999 1030 885
8 882 999 1030 885 883 1000 1031 886
8 884 1029 1032 887 885 1030 1033 888
8 885 1030 1033 888 886 1031 1034 889
8 886 1031 1034 889 1035 1036 1037 1038
8 1035 1036 1037 1038 1039 1040 1041 1042
8 1039 1040 1041 1042 1043 1044 1045 1046
8 1043 1044 1045 1046 1047 1048 1049 1050
8 1047 1048 1049 1050 1051 1052 1053 1054
8 1051 1052 1053 1054 1055 1056 1057 1058
8 1055 1056 1057 1058 1059 1060 1061 1062
CELL_TYPES 375
12
12
12
12
12
12
12
12
12
12
12
12
12
12
12
12
12
12
12
12
12
12
12
12
12
12
12
12
12
12
12
12
12
12
12
12
12
12
12
12
12
12
12
12
12
12
12
12
12
12
12
12
12
12
12
12
12
12
12
12
12
12
12
12
12
12
12
12
12
12
12
12
12
12
12
12
12
12
12
12
12
12
12
12
12
12
12
12
12
12
12
12
12
12
12
12
12
12
12
12
12
12
12
12
12
12
12
12
12
12
12
12
12
12
12
12
12
12
12
12
12
12
12
12
12
12
12
12
12
12
12
12
12
12
12
12
12
12
12
12
12
12
12
12
12
12
12
12
12
12
12
12
12
12
12
12
12
12
12
12
12
12
12
12
12
12
12
12
12
12
12
12
12
12
12
12
12
12
12
12
12
12
12
12
12
12
12
12
12
12
12
12
12
12
12
12
12
12
12
12
12
12
12
12
12
12
12
12
12
12
12
12
12
12
12
12
12
12
12
12
12
12
12
12
12
12
12
12
12
12
12
12
12
12
12
12
12
12
12
12
12
12
12
12
12
12
12
12
12
12
12
12
12
12
12
12
12
12
12
12
12
12
12
12
12
12
12
12
12
12
12
12
12
12
12
12
12
12
12
12
12
12
12
12
12
12
12
12
12
12
12
12
12
12
12
12
12
12
12
12
12
12
12
12
12
12
12
12
12
12
12
12
12
12
12
12
12
12
12
12
12
12
12
12
12
12
12
12
12
12
12
12
12
12
12
12
12
12
12
12
12
12
12
12
12
12
12
12
12
12
12
12
12
12
12
12
12
12
12
12
12
12
12
12
12
12
12
12
12
12
12
12
12
12
12
CELL_DATA 375
SCALARS region_id int 1
LOOKUP_TABLE default
0
0
3
3
3
3
3
3
3
0
0
0
0
3
3
3
3
3
3
3
0
0
0
0
2
2
2
2
2
2
2
0
0
0
0
0
0
2
2
2
2
2
2
2
0
0
0
0
3
3
3
3
3
3
3
0
0
0
0
0
0
0
0
0
0
0
0
0
0
0
0
0
0
0
0
0
0
1
1
1
1
1
1
1
0
0
0
0
3
3
3
3
3
3
3
0
0
0
0
2
2
2
2
2
2
2
0
0
0
0
0
0
3
3
3
3
3
3
3
0
0
0
0
3
3
3
3
3
3
3
0
0
0
0
0
0
0
0
0
0
0
0
0
0
0
0
0
0
0
0
0
0
2
2
2
2
2
2
2
0
0
0
0
2
2
2
2
2
2
2
0
0
0
0
2
2
2
2
2
2
2
0
0
0
0
0
0
3
3
3
3
3
3
3
0
0
0
0
3
3
3
3
3
3
3
0
0
0
0
0
0
0
0
0
0
0
0
0
0
0
0
0
0
0
0
0
0
0
0
0
0
0
0
0
0
0
0
0
0
0
0
0
0
0
0
0
0
2
2
2
2
2
2
2
0
0
0
0
2
2
2
2
2
2
2
0
0
0
0
3
3
3
3
3
3
3
0
0
0
0
0
0
2
2
2
2
2
2
2
0
0
0
0
2
2
2
2
2
2
2
0
0
0
0
0
0
0
0
0
0
0
0
0
0
0
0
0
0
0
0
0
0
2
2
2
2
2
2
2
0
0
0
0
1
1
1
1
1
1
1
0
0
0
0
2
2
2
2
2
2
2
0
0
0
0
0
0
3
3
3
3
3
3
3
0
0
0
0
3
3
3
3
3
3
3
